<mxfile host="app.diagrams.net" modified="2023-06-30T07:59:38.956Z" agent="Mozilla/5.0 (Macintosh; Intel Mac OS X 10_15_7) AppleWebKit/537.36 (KHTML, like Gecko) Chrome/114.0.0.0 Safari/537.36" etag="9yTII8dEV5SbOORJsvq9" version="21.5.1" type="github">
  <diagram name="第 1 页" id="t8VWGRGJ3FBFKu5Z4p0i">
    <mxGraphModel dx="1434" dy="919" grid="1" gridSize="10" guides="1" tooltips="1" connect="1" arrows="1" fold="1" page="1" pageScale="1" pageWidth="827" pageHeight="1169" math="0" shadow="0">
      <root>
        <mxCell id="0" />
        <mxCell id="1" parent="0" />
      </root>
    </mxGraphModel>
  </diagram>
</mxfile>
